# xmcd
#
# Track frame offsets: 
#        150
#        23024
#        46197
#        71608
#        91173
#        111059
#        132408
#        157937
#        178188
#
# Disc length: 2632 seconds
#
# Revision: 0
# Processed by: cddbd v1.5.2PL0 Copyright (c) Steve Scherf et al.
# Submitted via: ExactAudioCopyFreeDBPlugin 1.0
#
DISCID=6b0a4609
DTITLE=Hong Ngoc - 2007
DYEAR=1900
DGENRE=
TTITLE0=Em lai ve
TTITLE1=Trai tim an nan
TTITLE2=Chuyen thuong tinh the thoi
TTITLE3=Tinh dau
TTITLE4=Giac mo ky niem
TTITLE5=doi thay
TTITLE6=Mot lan lam lo
TTITLE7=Tu biet mot noi yeu thuong
TTITLE8=Danh thuc tam xuan
EXTD=
EXTT0=
EXTT1=
EXTT2=
EXTT3=
EXTT4=
EXTT5=
EXTT6=
EXTT7=
EXTT8=
PLAYORDER=
